<svg width="30" height="30" viewBox="0 0 30 30" fill="none" xmlns="http://www.w3.org/2000/svg">
<g opacity="0.6">
<path d="M24.375 0H5.625C2.51769 0 0 2.51769 0 5.625V24.375C0 27.4823 2.51769 30 5.625 30H24.375C27.4823 30 30 27.4823 30 24.375V5.625C30 2.51769 27.4823 0 24.375 0ZM9.27577 25.4642H4.61538L4.58885 11.5119H9.24923L9.27577 25.4642ZM6.82846 9.68538H6.79962C5.27885 9.68538 4.29462 8.63769 4.29462 7.32923C4.29462 5.99192 5.30885 4.97423 6.85846 4.97423C8.40923 4.97423 9.36346 5.99192 9.39231 7.32923C9.39231 8.63654 8.40808 9.68538 6.82846 9.68538ZM25.4331 25.4654H20.7312V17.8835C20.7312 16.0512 20.2454 14.8015 18.6058 14.8015C17.355 14.8015 16.6777 15.645 16.35 16.4596C16.23 16.7515 16.2 17.1565 16.2 17.5638V25.4665H11.475L11.4485 11.5119H16.1735L16.2 13.4792C16.8012 12.5492 17.8085 11.2258 20.2154 11.2258C23.1969 11.2258 25.4319 13.1735 25.4319 17.3608V25.4654H25.4331Z" fill="white"/>
</g>
</svg>
