<?xml version="1.0" standalone="no"?>
<!DOCTYPE svg PUBLIC "-//W3C//DTD SVG 20010904//EN"
 "http://www.w3.org/TR/2001/REC-SVG-20010904/DTD/svg10.dtd">
<svg version="1.0" xmlns="http://www.w3.org/2000/svg"
 width="500.000000pt" height="500.000000pt" viewBox="0 0 500.000000 500.000000"
 preserveAspectRatio="xMidYMid meet">
<metadata>
Created by potrace 1.11, written by Peter Selinger 2001-2013
</metadata>
<g transform="translate(0.000000,500.000000) scale(0.100000,-0.100000)"
fill="#000000" stroke="none">
<path d="M2146 4589 c-29 -23 -96 -32 -96 -13 0 8 -7 14 -15 14 -8 0 -15 -5
-15 -10 0 -6 -6 -10 -12 -9 -24 4 -47 -12 -41 -28 4 -10 2 -14 -5 -9 -6 3 -14
-3 -18 -16 -7 -24 -43 -55 -57 -50 -5 1 -6 -6 -2 -17 4 -14 0 -23 -14 -30 -19
-10 -26 -51 -9 -51 4 0 8 -9 8 -21 0 -11 5 -17 10 -14 14 9 12 -2 -6 -33 -12
-20 -12 -22 -1 -9 13 16 15 16 21 2 3 -9 2 -13 -4 -10 -6 3 -11 1 -11 -4 -2
-12 -5 -26 -9 -38 -1 -5 -2 -11 -1 -15 2 -11 -13 -10 -25 2 -6 6 -10 0 -11
-18 -1 -15 1 -21 4 -14 7 18 23 14 16 -5 -4 -10 -2 -14 4 -10 5 3 10 0 10 -8
0 -18 -9 -19 -27 -2 -12 10 -12 9 -1 -5 11 -15 10 -23 -8 -51 -12 -19 -21 -48
-21 -65 0 -17 -6 -33 -12 -35 -10 -4 -10 -6 0 -6 10 -1 10 -6 2 -21 -6 -11 -8
-20 -4 -20 3 0 -1 -11 -10 -25 -9 -13 -16 -31 -16 -40 0 -9 -6 -18 -14 -21 -9
-4 -13 -15 -10 -31 3 -14 -1 -32 -7 -40 -12 -13 -13 -62 -4 -143 10 -87 18
-188 18 -220 -1 -19 3 -40 7 -45 5 -6 5 -17 0 -25 -5 -8 -5 -21 1 -32 7 -12 6
-18 -1 -18 -7 0 -8 -6 -2 -17 9 -19 8 -84 -5 -203 -9 -85 -9 -416 0 -470 14
-85 19 -105 28 -108 5 -2 9 -14 9 -27 0 -13 4 -26 9 -30 5 -3 12 -18 16 -34 3
-16 13 -32 21 -35 8 -3 14 -14 14 -24 0 -10 9 -27 20 -37 11 -10 18 -20 15
-23 -2 -3 7 -16 21 -29 14 -12 22 -23 18 -23 -7 0 67 -93 78 -98 5 -2 8 -10 8
-17 0 -7 5 -15 11 -17 7 -2 9 -13 5 -24 -7 -23 -185 -112 -236 -119 -3 0 -10
-3 -16 -7 -6 -4 -22 -9 -37 -12 -14 -2 -41 -11 -59 -19 -18 -9 -50 -21 -70
-28 -21 -7 -38 -17 -38 -21 0 -4 -3 -7 -7 -6 -12 4 -113 -54 -113 -64 0 -4 -5
-8 -10 -8 -6 0 -28 -11 -50 -25 -21 -14 -45 -26 -52 -27 -7 -2 -16 -6 -19 -11
-3 -4 -15 -9 -28 -12 -32 -6 -140 -45 -185 -66 -22 -11 -46 -19 -53 -19 -7 0
-13 -5 -13 -10 0 -6 -3 -9 -7 -8 -12 4 -133 -56 -133 -64 0 -5 -6 -8 -14 -8
-8 0 -16 -4 -18 -10 -2 -5 -19 -12 -38 -14 -19 -2 -39 -4 -43 -5 -14 -2 -77
-73 -77 -87 0 -8 -4 -14 -9 -14 -5 0 -14 -27 -22 -60 -7 -33 -17 -60 -21 -60
-4 0 -8 -8 -8 -19 0 -10 -7 -24 -15 -31 -8 -7 -12 -16 -10 -21 3 -4 -1 -11 -8
-16 -13 -8 -49 -76 -54 -103 -1 -8 -5 -41 -8 -72 -3 -31 -19 -85 -34 -120 -43
-95 -64 -142 -66 -150 -2 -5 -4 -10 -5 -13 -1 -3 -3 -8 -5 -12 -1 -5 -5 -15
-8 -23 -9 -20 -45 -167 -52 -207 -3 -18 -8 -48 -11 -65 -3 -18 -8 -42 -9 -53
-5 -29 -12 -70 -30 -155 -8 -41 -17 -86 -20 -100 -2 -14 -7 -36 -10 -50 -4
-14 -8 -34 -10 -45 -2 -11 -7 -32 -10 -47 l-5 -28 2360 0 2360 0 0 662 0 661
-40 37 c-22 20 -40 35 -40 33 0 -2 -11 6 -24 19 -13 13 -33 30 -46 38 -12 8
-30 22 -40 30 -48 39 -65 50 -73 50 -4 0 -5 5 -2 10 3 6 -3 10 -14 10 -11 0
-24 7 -29 16 -5 8 -15 16 -23 18 -13 2 -23 7 -84 43 -33 20 -107 54 -155 70
-24 8 -91 39 -147 68 -57 30 -103 51 -103 47 0 -4 -4 -2 -8 4 -4 5 -25 18 -47
28 -52 24 -85 40 -110 53 -29 17 -211 93 -220 93 -5 0 -23 11 -42 26 -18 14
-33 22 -33 19 0 -4 -6 0 -14 7 -7 7 -24 20 -36 28 -36 24 -80 73 -197 220 -76
95 -99 120 -111 120 -11 0 -31 38 -37 70 -4 22 -6 61 -4 110 0 8 -2 27 -4 43
-2 15 -1 29 3 32 4 2 5 17 2 33 -3 25 1 31 28 42 18 7 38 13 46 13 8 0 14 4
14 9 0 4 10 8 22 8 12 0 18 3 15 7 -4 3 2 12 13 20 32 23 76 127 94 223 2 14
9 45 15 69 5 25 8 48 5 52 -2 4 0 10 5 13 8 5 8 91 0 134 -1 8 -18 21 -36 30
-34 16 -34 17 -32 77 2 33 5 65 8 70 7 12 6 6 16 80 4 33 8 65 9 70 1 6 4 15
7 20 3 6 6 25 8 44 1 18 5 41 9 50 5 9 7 59 6 111 -4 150 -7 180 -16 180 -5 0
-6 5 -3 10 4 6 2 16 -3 23 -5 7 -13 22 -16 34 -8 25 -83 103 -99 103 -5 0 -20
11 -32 24 -13 14 -26 22 -29 19 -3 -4 -6 -1 -6 6 0 7 -4 9 -10 6 -5 -3 -10 0
-10 7 0 13 -62 58 -80 58 -5 0 -10 4 -10 9 0 5 -21 21 -46 36 -25 15 -55 36
-65 46 -10 10 -27 19 -38 19 -10 0 -24 7 -31 15 -7 8 -20 15 -29 15 -9 0 -22
5 -27 10 -6 6 -27 12 -47 13 -21 1 -37 6 -37 11 0 5 -3 7 -6 3 -3 -3 -17 -1
-31 4 -27 10 -86 22 -115 23 -10 0 -18 3 -18 6 0 7 -3 7 -50 12 -14 2 -27 6
-30 10 -3 3 -23 8 -45 10 -22 2 -45 7 -51 11 -6 3 -26 9 -45 11 -46 7 -89 15
-119 23 -44 11 -95 11 -102 -1 -6 -8 -8 -8 -8 0 0 13 -58 13 -78 0 -7 -4 -12
-3 -12 2 0 15 -62 8 -84 -9z"/>
</g>
</svg>
