<svg width="30" height="30" viewBox="0 0 30 30" fill="none" xmlns="http://www.w3.org/2000/svg">
<g opacity="0.6">
<path d="M15.0586 12.3047C13.6046 12.3047 12.4219 13.4875 12.4219 14.9414C12.4219 16.3954 13.6046 17.5781 15.0586 17.5781C16.5125 17.5781 17.6953 16.3954 17.6953 14.9414C17.6953 13.4875 16.5125 12.3047 15.0586 12.3047Z" fill="white"/>
<path d="M14.9414 0C6.70254 0 0 6.70254 0 14.9414C0 23.1803 6.70254 30 14.9414 30C23.1803 30 30 23.1803 30 14.9414C30 6.70254 23.1803 0 14.9414 0ZM21.2109 19.3359C20.0231 19.3359 18.9755 18.7406 18.3388 17.8362C17.533 18.7483 16.3684 19.3359 15.0586 19.3359C12.6356 19.3359 10.6641 17.3644 10.6641 14.9414C10.6641 12.5184 12.6356 10.5469 15.0586 10.5469C16.0516 10.5469 16.9586 10.8905 17.6953 11.4482V11.4258C17.6953 10.94 18.0884 10.5469 18.5742 10.5469C19.06 10.5469 19.4531 10.94 19.4531 11.4258C19.4531 13.3805 19.4531 13.8647 19.4531 15.8203C19.4531 16.7893 20.2419 17.5781 21.2109 17.5781C22.18 17.5781 22.9688 16.7893 22.9688 15.8203C22.9688 9.93803 19.0763 7.03125 15.0586 7.03125C10.6967 7.03125 7.14844 10.5795 7.14844 14.9414C7.14844 19.3033 10.6967 22.8516 15.0586 22.8516C16.8164 22.8516 18.4789 22.2885 19.8669 21.2225C20.7939 20.5148 21.8555 21.9118 20.938 22.6164C19.2394 23.9201 17.2069 24.6094 15.0586 24.6094C9.72768 24.6094 5.39062 20.2723 5.39062 14.9414C5.39062 9.61049 9.72768 5.27344 15.0586 5.27344C19.9158 5.27344 24.7266 8.85557 24.7266 15.8203C24.7266 17.7592 23.1499 19.3359 21.2109 19.3359Z" fill="white"/>
</g>
</svg>
