<svg width="30" height="30" viewBox="0 0 30 30" fill="none" xmlns="http://www.w3.org/2000/svg">
<g opacity="0.6">
<path d="M27.6822 3.93122C27.2322 3.54962 26.5254 3.49502 25.7946 3.78842H25.7934C25.0248 4.09682 4.03678 13.0992 3.18238 13.467C3.02698 13.521 1.66978 14.0274 1.80958 15.1554C1.93438 16.1724 3.02518 16.5936 3.15838 16.6422L8.49418 18.4692C8.84818 19.6476 10.1532 23.9952 10.4418 24.924C10.6218 25.503 10.9152 26.2638 11.4294 26.4204C11.8806 26.5944 12.3294 26.4354 12.6198 26.2074L15.882 23.1816L21.1482 27.2886L21.2736 27.3636C21.6312 27.522 21.9738 27.6012 22.3008 27.6012C22.5534 27.6012 22.7958 27.5538 23.0274 27.459C23.8164 27.135 24.132 26.3832 24.165 26.298L28.0986 5.85182C28.3386 4.75982 28.005 4.20422 27.6822 3.93122ZM13.2 19.2L11.4 24L9.59999 18L23.4 7.80002L13.2 19.2Z" fill="white"/>
</g>
</svg>
