<svg width="30" height="30" viewBox="0 0 30 30" fill="none" xmlns="http://www.w3.org/2000/svg">
<path fill-rule="evenodd" clip-rule="evenodd" d="M9.15961 28.1231C20.8727 28.1231 27.2796 18.4181 27.2796 10.0031C27.2796 9.72751 27.2796 9.45188 27.2609 9.18001C28.2827 8.44126 29.1902 7.55626 29.9552 6.55876C30.0171 6.47251 30.0152 6.35626 29.9496 6.27188C29.8859 6.18751 29.7752 6.15563 29.6759 6.19313C28.7421 6.53438 27.7709 6.76876 26.7809 6.88501C27.964 6.17813 28.8809 5.10751 29.404 3.84376C29.4321 3.77063 29.4096 3.68813 29.3515 3.63751C29.2934 3.58688 29.209 3.57751 29.1396 3.61501C28.0109 4.22251 26.7959 4.65938 25.5377 4.90876C24.3321 3.62813 22.6502 2.90063 20.8934 2.90063C17.3965 2.90063 14.5184 5.77876 14.5184 9.27563C14.5184 9.76126 14.5746 10.245 14.6834 10.7175C9.69773 10.4663 5.03836 8.16376 1.81336 4.36876C1.75523 4.29938 1.66523 4.26376 1.57523 4.27313C1.48523 4.28251 1.40461 4.33688 1.36336 4.41751C-0.0485178 7.25813 0.858982 10.7813 3.52898 12.5644C2.80336 12.5419 1.63523 12.1838 1.02961 11.9831C0.941482 11.9531 0.845857 11.97 0.772732 12.0263C0.697732 12.0825 0.658357 12.1725 0.663982 12.2644C0.813982 13.5375 1.58648 17.3344 5.74898 18.09C4.93336 18.3131 4.08398 18.3713 3.24961 18.2606C3.16898 18.2494 3.08836 18.2813 3.03773 18.3431C2.98711 18.4069 2.97398 18.4913 3.00211 18.5663C3.93586 20.955 6.23461 22.575 8.82211 22.6238C7.33148 23.7938 5.60836 24.6131 3.78398 25.0313C3.18773 25.1681 1.77211 25.2488 0.695857 25.275C0.536482 25.2694 0.393982 25.3763 0.350857 25.53C0.309607 25.6856 0.377107 25.8488 0.517732 25.9275C3.16336 27.3656 6.13336 28.1231 9.15961 28.1194" fill="#999999"/>
</svg>
